<?xml version="1.0" encoding="iso-8859-1"?>
<!-- Generator: Adobe Illustrator 19.1.0, SVG Export Plug-In . SVG Version: 6.00 Build 0)  -->
<svg version="1.1" id="Capa_1" xmlns="http://www.w3.org/2000/svg" xmlns:xlink="http://www.w3.org/1999/xlink" x="0px" y="0px"
	 viewBox="0 0 70.54 70.54" style="enable-background:new 0 0 70.54 70.54;" xml:space="preserve">
<g>
	<g>
		<path d="M70.442,27.182c-0.235-0.724-0.861-1.252-1.615-1.361L46.88,22.633l-9.818-19.89c-0.337-0.683-1.032-1.114-1.793-1.114
			c-0.762,0-1.457,0.433-1.794,1.115l-9.814,19.889L1.713,25.821c-0.754,0.109-1.38,0.638-1.615,1.361
			c-0.235,0.725-0.039,1.519,0.506,2.051l15.88,15.48l-3.749,21.861c-0.128,0.75,0.181,1.509,0.796,1.956
			c0.617,0.447,1.434,0.506,2.106,0.152l19.631-10.321l19.633,10.322c0.293,0.153,0.612,0.229,0.931,0.229
			c0.414,0,0.827-0.129,1.176-0.382c0.615-0.447,0.924-1.206,0.796-1.956l-3.75-21.861l15.882-15.48
			C70.481,28.701,70.678,27.907,70.442,27.182z M50.509,42.582c-0.471,0.46-0.686,1.122-0.575,1.771l3.242,18.903l-16.977-8.925
			c-0.291-0.153-0.611-0.229-0.931-0.229s-0.64,0.076-0.931,0.229l-16.974,8.925l3.242-18.903c0.11-0.648-0.104-1.311-0.575-1.771
			L6.297,29.197l18.979-2.757c0.652-0.095,1.215-0.504,1.507-1.095l8.486-17.198l8.49,17.199c0.291,0.59,0.854,0.999,1.506,1.094
			l18.978,2.757L50.509,42.582z"/>
	</g>
</g>
<g>
</g>
<g>
</g>
<g>
</g>
<g>
</g>
<g>
</g>
<g>
</g>
<g>
</g>
<g>
</g>
<g>
</g>
<g>
</g>
<g>
</g>
<g>
</g>
<g>
</g>
<g>
</g>
<g>
</g>
</svg>
